<svg xmlns="http://www.w3.org/2000/svg" width="22.002" height="18.536" viewBox="0 0 22.002 18.536">
  <g id="calendar" transform="translate(0 -40.335)">
    <g id="Group_9" data-name="Group 9" transform="translate(0 41.984)">
      <g id="Group_8" data-name="Group 8" transform="translate(0 0)">
        <path id="Path_9" data-name="Path 9" d="M20.325,78.719H1.677A1.66,1.66,0,0,0,0,80.4V93.928a1.66,1.66,0,0,0,1.677,1.677H20.325A1.66,1.66,0,0,0,22,93.928V80.4A1.66,1.66,0,0,0,20.325,78.719Zm0,15.209H1.677L1.665,80.4h18.66V93.928Z" transform="translate(0 -78.719)" fill="#00b9e3"/>
      </g>
    </g>
    <g id="Group_11" data-name="Group 11" transform="translate(16.774 40.335)">
      <g id="Group_10" data-name="Group 10" transform="translate(0 0)">
        <path id="Path_10" data-name="Path 10" d="M391.182,40.335a.839.839,0,0,0-.839.839v2.991a.839.839,0,0,0,1.677,0V41.174A.839.839,0,0,0,391.182,40.335Z" transform="translate(-390.343 -40.335)" fill="#00b9e3"/>
      </g>
    </g>
    <g id="Group_13" data-name="Group 13" transform="translate(3.523 40.335)">
      <g id="Group_12" data-name="Group 12" transform="translate(0 0)">
        <path id="Path_11" data-name="Path 11" d="M82.811,40.335a.839.839,0,0,0-.839.839v2.991a.839.839,0,0,0,1.677,0V41.174A.839.839,0,0,0,82.811,40.335Z" transform="translate(-81.972 -40.335)" fill="#00b9e3"/>
      </g>
    </g>
    <g id="Group_15" data-name="Group 15" transform="translate(7.716 46.709)">
      <g id="Group_14" data-name="Group 14" transform="translate(0 0)">
        <path id="Path_12" data-name="Path 12" d="M181.375,188.666H180.4a.839.839,0,1,0,0,1.677h.979a.839.839,0,0,0,0-1.677Z" transform="translate(-179.558 -188.666)" fill="#00b9e3"/>
      </g>
    </g>
    <g id="Group_17" data-name="Group 17" transform="translate(3.802 46.709)">
      <g id="Group_16" data-name="Group 16" transform="translate(0 0)">
        <path id="Path_13" data-name="Path 13" d="M90.3,188.666h-.979a.839.839,0,0,0,0,1.677H90.3a.839.839,0,1,0,0-1.677Z" transform="translate(-88.478 -188.666)" fill="#00b9e3"/>
      </g>
    </g>
    <g id="Group_19" data-name="Group 19" transform="translate(11.602 46.709)">
      <g id="Group_18" data-name="Group 18" transform="translate(0 0)">
        <path id="Path_14" data-name="Path 14" d="M271.8,188.666h-.978a.839.839,0,0,0,0,1.677h.978a.839.839,0,0,0,0-1.677Z" transform="translate(-269.987 -188.666)" fill="#00b9e3"/>
      </g>
    </g>
    <g id="Group_21" data-name="Group 21" transform="translate(15.516 46.709)">
      <g id="Group_20" data-name="Group 20" transform="translate(0 0)">
        <path id="Path_15" data-name="Path 15" d="M362.885,188.666h-.979a.839.839,0,0,0,0,1.677h.979a.839.839,0,1,0,0-1.677Z" transform="translate(-361.068 -188.666)" fill="#00b9e3"/>
      </g>
    </g>
    <g id="Group_23" data-name="Group 23" transform="translate(7.716 49.98)">
      <g id="Group_22" data-name="Group 22">
        <path id="Path_16" data-name="Path 16" d="M181.375,264.783H180.4a.839.839,0,1,0,0,1.677h.979a.839.839,0,0,0,0-1.677Z" transform="translate(-179.558 -264.783)" fill="#00b9e3"/>
      </g>
    </g>
    <g id="Group_25" data-name="Group 25" transform="translate(3.802 49.98)">
      <g id="Group_24" data-name="Group 24">
        <path id="Path_17" data-name="Path 17" d="M90.3,264.783h-.979a.839.839,0,0,0,0,1.677H90.3a.839.839,0,0,0,0-1.677Z" transform="translate(-88.478 -264.783)" fill="#00b9e3"/>
      </g>
    </g>
    <g id="Group_27" data-name="Group 27" transform="translate(11.602 49.98)">
      <g id="Group_26" data-name="Group 26">
        <path id="Path_18" data-name="Path 18" d="M271.8,264.783h-.978a.839.839,0,0,0,0,1.677h.978a.839.839,0,0,0,0-1.677Z" transform="translate(-269.987 -264.783)" fill="#00b9e3"/>
      </g>
    </g>
    <g id="Group_29" data-name="Group 29" transform="translate(15.516 49.98)">
      <g id="Group_28" data-name="Group 28">
        <path id="Path_19" data-name="Path 19" d="M362.885,264.783h-.979a.839.839,0,0,0,0,1.677h.979a.839.839,0,1,0,0-1.677Z" transform="translate(-361.068 -264.783)" fill="#00b9e3"/>
      </g>
    </g>
    <g id="Group_31" data-name="Group 31" transform="translate(7.716 53.251)">
      <g id="Group_30" data-name="Group 30" transform="translate(0 0)">
        <path id="Path_20" data-name="Path 20" d="M181.375,340.9H180.4a.839.839,0,1,0,0,1.677h.979a.839.839,0,0,0,0-1.677Z" transform="translate(-179.558 -340.9)" fill="#00b9e3"/>
      </g>
    </g>
    <g id="Group_33" data-name="Group 33" transform="translate(3.802 53.251)">
      <g id="Group_32" data-name="Group 32" transform="translate(0 0)">
        <path id="Path_21" data-name="Path 21" d="M90.3,340.9h-.979a.839.839,0,1,0,0,1.677H90.3a.839.839,0,1,0,0-1.677Z" transform="translate(-88.478 -340.9)" fill="#00b9e3"/>
      </g>
    </g>
    <g id="Group_35" data-name="Group 35" transform="translate(11.602 53.251)">
      <g id="Group_34" data-name="Group 34" transform="translate(0 0)">
        <path id="Path_22" data-name="Path 22" d="M271.8,340.9h-.978a.839.839,0,1,0,0,1.677h.978a.839.839,0,1,0,0-1.677Z" transform="translate(-269.987 -340.9)" fill="#00b9e3"/>
      </g>
    </g>
    <g id="Group_37" data-name="Group 37" transform="translate(15.516 53.251)">
      <g id="Group_36" data-name="Group 36" transform="translate(0 0)">
        <path id="Path_23" data-name="Path 23" d="M362.885,340.9h-.979a.839.839,0,0,0,0,1.677h.979a.839.839,0,1,0,0-1.677Z" transform="translate(-361.068 -340.9)" fill="#00b9e3"/>
      </g>
    </g>
  </g>
</svg>
