<svg id="share" xmlns="http://www.w3.org/2000/svg" width="22.029" height="22.029" viewBox="0 0 22.029 22.029">
  <g id="Group_103" data-name="Group 103" transform="translate(0 0)">
    <g id="Group_102" data-name="Group 102" transform="translate(0 0)">
      <path id="Path_377" data-name="Path 377" d="M323.725,4.5a.348.348,0,0,0,.339-.357,3.362,3.362,0,1,1,1.149,2.443.348.348,0,1,0-.458.524,4.045,4.045,0,0,0,2.669,1h.109a4.058,4.058,0,0,0,2.684-7,4.058,4.058,0,0,0-6.849,3.053A.349.349,0,0,0,323.725,4.5Z" transform="translate(-309.454 0)" fill="#0f78bd"/>
      <path id="Path_378" data-name="Path 378" d="M327.631,323.374a4.054,4.054,0,0,0-2.733.874.348.348,0,0,0,.433.545,3.362,3.362,0,1,1-1.268,2.459.348.348,0,0,0-.695-.036,4.058,4.058,0,0,0,3.842,4.263q.108.006.215.006a4.058,4.058,0,0,0,.206-8.111Z" transform="translate(-309.449 -309.455)" fill="#0f78bd"/>
      <path id="Path_379" data-name="Path 379" d="M59.232,61.437a2.2,2.2,0,1,0-1.789-3.486L47.42,52.939a2.208,2.208,0,0,0,0-1.324L57.443,46.6a2.192,2.192,0,1,0-.312-.622L47.108,50.994a2.2,2.2,0,1,0,0,2.567l10.022,5.011a2.2,2.2,0,0,0,2.1,2.865Zm0-3.71a1.507,1.507,0,1,1-1.507,1.507A1.509,1.509,0,0,1,59.232,57.727Zm0-13.913a1.507,1.507,0,1,1-1.507,1.507A1.509,1.509,0,0,1,59.232,43.814ZM45.319,53.785a1.507,1.507,0,1,1,1.507-1.507A1.509,1.509,0,0,1,45.319,53.785Z" transform="translate(-41.261 -41.263)" fill="#0f78bd"/>
      <path id="Path_380" data-name="Path 380" d="M5.561,168.749a3.326,3.326,0,0,1-1.5.355,3.362,3.362,0,1,1,0-6.725,3.327,3.327,0,0,1,1.5.355.348.348,0,0,0,.312-.622,4.016,4.016,0,0,0-1.815-.429,4.058,4.058,0,0,0,0,8.116,4.016,4.016,0,0,0,1.815-.429.348.348,0,0,0-.312-.622Z" transform="translate(0 -154.727)" fill="#0f78bd"/>
    </g>
  </g>
</svg>
