<svg xmlns="http://www.w3.org/2000/svg" width="25.908" height="21.826" viewBox="0 0 25.908 21.826">
  <g id="calendar" transform="translate(0 -40.335)">
    <g id="Group_9" data-name="Group 9" transform="translate(0 42.277)">
      <g id="Group_8" data-name="Group 8" transform="translate(0 0)">
        <path id="Path_9" data-name="Path 9" d="M23.933,78.719H1.975A1.954,1.954,0,0,0,0,80.694V96.628A1.954,1.954,0,0,0,1.975,98.6H23.933a1.954,1.954,0,0,0,1.975-1.975V80.694A1.954,1.954,0,0,0,23.933,78.719Zm0,17.909H1.975L1.96,80.7H23.933V96.628Z" transform="translate(0 -78.719)" fill="#1b84ff"/>
      </g>
    </g>
    <g id="Group_11" data-name="Group 11" transform="translate(19.752 40.335)">
      <g id="Group_10" data-name="Group 10" transform="translate(0 0)">
        <path id="Path_10" data-name="Path 10" d="M391.331,40.335a.987.987,0,0,0-.988.988v3.522a.988.988,0,1,0,1.975,0V41.323A.988.988,0,0,0,391.331,40.335Z" transform="translate(-390.343 -40.335)" fill="#1b84ff"/>
      </g>
    </g>
    <g id="Group_13" data-name="Group 13" transform="translate(4.148 40.335)">
      <g id="Group_12" data-name="Group 12" transform="translate(0 0)">
        <path id="Path_11" data-name="Path 11" d="M82.96,40.335a.988.988,0,0,0-.988.988v3.522a.988.988,0,1,0,1.975,0V41.323A.988.988,0,0,0,82.96,40.335Z" transform="translate(-81.972 -40.335)" fill="#1b84ff"/>
      </g>
    </g>
    <g id="Group_15" data-name="Group 15" transform="translate(9.086 47.841)">
      <g id="Group_14" data-name="Group 14" transform="translate(0 0)">
        <path id="Path_12" data-name="Path 12" d="M181.7,188.666h-1.152a.988.988,0,0,0,0,1.975H181.7a.988.988,0,0,0,0-1.975Z" transform="translate(-179.558 -188.666)" fill="#1b84ff"/>
      </g>
    </g>
    <g id="Group_17" data-name="Group 17" transform="translate(4.477 47.841)">
      <g id="Group_16" data-name="Group 16" transform="translate(0 0)">
        <path id="Path_13" data-name="Path 13" d="M90.618,188.666H89.466a.988.988,0,0,0,0,1.975h1.152a.988.988,0,0,0,0-1.975Z" transform="translate(-88.478 -188.666)" fill="#1b84ff"/>
      </g>
    </g>
    <g id="Group_19" data-name="Group 19" transform="translate(13.662 47.841)">
      <g id="Group_18" data-name="Group 18" transform="translate(0 0)">
        <path id="Path_14" data-name="Path 14" d="M272.127,188.666h-1.152a.988.988,0,1,0,0,1.975h1.152a.988.988,0,0,0,0-1.975Z" transform="translate(-269.987 -188.666)" fill="#1b84ff"/>
      </g>
    </g>
    <g id="Group_21" data-name="Group 21" transform="translate(18.271 47.841)">
      <g id="Group_20" data-name="Group 20" transform="translate(0 0)">
        <path id="Path_15" data-name="Path 15" d="M363.208,188.666h-1.152a.988.988,0,0,0,0,1.975h1.152a.988.988,0,1,0,0-1.975Z" transform="translate(-361.068 -188.666)" fill="#1b84ff"/>
      </g>
    </g>
    <g id="Group_23" data-name="Group 23" transform="translate(9.086 51.693)">
      <g id="Group_22" data-name="Group 22">
        <path id="Path_16" data-name="Path 16" d="M181.7,264.783h-1.152a.988.988,0,0,0,0,1.975H181.7a.988.988,0,0,0,0-1.975Z" transform="translate(-179.558 -264.783)" fill="#1b84ff"/>
      </g>
    </g>
    <g id="Group_25" data-name="Group 25" transform="translate(4.477 51.693)">
      <g id="Group_24" data-name="Group 24">
        <path id="Path_17" data-name="Path 17" d="M90.618,264.783H89.466a.988.988,0,0,0,0,1.975h1.152a.988.988,0,0,0,0-1.975Z" transform="translate(-88.478 -264.783)" fill="#1b84ff"/>
      </g>
    </g>
    <g id="Group_27" data-name="Group 27" transform="translate(13.662 51.693)">
      <g id="Group_26" data-name="Group 26">
        <path id="Path_18" data-name="Path 18" d="M272.127,264.783h-1.152a.988.988,0,1,0,0,1.975h1.152a.988.988,0,0,0,0-1.975Z" transform="translate(-269.987 -264.783)" fill="#1b84ff"/>
      </g>
    </g>
    <g id="Group_29" data-name="Group 29" transform="translate(18.271 51.693)">
      <g id="Group_28" data-name="Group 28">
        <path id="Path_19" data-name="Path 19" d="M363.208,264.783h-1.152a.988.988,0,0,0,0,1.975h1.152a.988.988,0,1,0,0-1.975Z" transform="translate(-361.068 -264.783)" fill="#1b84ff"/>
      </g>
    </g>
    <g id="Group_31" data-name="Group 31" transform="translate(9.086 55.544)">
      <g id="Group_30" data-name="Group 30" transform="translate(0 0)">
        <path id="Path_20" data-name="Path 20" d="M181.7,340.9h-1.152a.988.988,0,0,0,0,1.975H181.7a.988.988,0,0,0,0-1.975Z" transform="translate(-179.558 -340.9)" fill="#1b84ff"/>
      </g>
    </g>
    <g id="Group_33" data-name="Group 33" transform="translate(4.477 55.544)">
      <g id="Group_32" data-name="Group 32" transform="translate(0 0)">
        <path id="Path_21" data-name="Path 21" d="M90.618,340.9H89.466a.988.988,0,0,0,0,1.975h1.152a.988.988,0,0,0,0-1.975Z" transform="translate(-88.478 -340.9)" fill="#1b84ff"/>
      </g>
    </g>
    <g id="Group_35" data-name="Group 35" transform="translate(13.662 55.544)">
      <g id="Group_34" data-name="Group 34" transform="translate(0 0)">
        <path id="Path_22" data-name="Path 22" d="M272.127,340.9h-1.152a.988.988,0,1,0,0,1.975h1.152a.988.988,0,0,0,0-1.975Z" transform="translate(-269.987 -340.9)" fill="#1b84ff"/>
      </g>
    </g>
    <g id="Group_37" data-name="Group 37" transform="translate(18.271 55.544)">
      <g id="Group_36" data-name="Group 36" transform="translate(0 0)">
        <path id="Path_23" data-name="Path 23" d="M363.208,340.9h-1.152a.988.988,0,0,0,0,1.975h1.152a.988.988,0,1,0,0-1.975Z" transform="translate(-361.068 -340.9)" fill="#1b84ff"/>
      </g>
    </g>
  </g>
</svg>
