<svg xmlns="http://www.w3.org/2000/svg" width="1451" height="613.977" viewBox="0 0 1451 613.977">
  <g id="cloud-bg" transform="translate(0 -30.335)" opacity="0.18">
    <g id="Group_237" data-name="Group 237" opacity="0.1">
      <path id="Path_906" data-name="Path 906" d="M0,30.335V600.312L1450,194.865s-63.49-67.281-167.6-67.281S1012.59,248.337,874.19,248.337,636.756,74.993,488.835,74.993,293.3,187.813,186.646,187.813,0,30.335,0,30.335Z" fill="#fff"/>
    </g>
    <g id="Group_238" data-name="Group 238" opacity="0.1">
      <path id="Path_907" data-name="Path 907" d="M0,50.335V620.312L1451,214.865s-63.53-67.281-167.72-67.281S1013.29,268.337,874.793,268.337,637.2,94.993,489.173,94.993s-195.67,112.82-302.4,112.82S0,50.335,0,50.335Z" fill="#fff"/>
    </g>
    <g id="Group_239" data-name="Group 239">
      <path id="Path_908" data-name="Path 908" d="M0,74.335V644.312H1440V238.865s-63.05-67.281-166.44-67.281-267.96,120.753-405.4,120.753-235.8-173.344-382.7-173.344-194.186,112.82-300.1,112.82S0,74.335,0,74.335Z" fill="#171723"/>
    </g>
  </g>
</svg>
