<svg xmlns="http://www.w3.org/2000/svg" xmlns:xlink="http://www.w3.org/1999/xlink" width="222" height="222" viewBox="0 0 222 222">
  <defs>
    <clipPath id="clip-path">
      <rect id="Rectangle_132" data-name="Rectangle 132" width="222" height="222" fill="#fff"/>
    </clipPath>
  </defs>
  <g id="upgrade" clip-path="url(#clip-path)">
    <path id="Path_405" data-name="Path 405" d="M202.548,87.785l-66.4-.593a13.872,13.872,0,0,0-13.974,13.728l-.514,46.408A13.8,13.8,0,0,0,135.333,161.3l66.4.593A13.874,13.874,0,0,0,215.7,148.168l.513-46.408A13.8,13.8,0,0,0,202.548,87.785Z" fill="#4bd657"/>
    <path id="Path_406" data-name="Path 406" d="M201.724,162.3l-66.393-.593a14.216,14.216,0,0,1-14.079-14.382l.513-46.408a14.291,14.291,0,0,1,14.4-14.141l66.392.593a14.218,14.218,0,0,1,14.08,14.4l-.513,46.408a14.291,14.291,0,0,1-14.4,14.127ZM136.151,87.6a13.481,13.481,0,0,0-13.58,13.341l-.514,46.408a13.412,13.412,0,0,0,13.283,13.567l66.392.593a13.482,13.482,0,0,0,13.581-13.327l.513-46.422a13.413,13.413,0,0,0-13.283-13.58Z"/>
    <path id="Path_407" data-name="Path 407" d="M188.9,105.418a25.447,25.447,0,0,0-7.609,8.218,9.291,9.291,0,0,0,8.547,13.608l6.269.056a8.66,8.66,0,0,0,8.4-11.064c-.919-3.1-3.423-6.118-7.479-10.221,0,0,3.45-3.091,3.625-6.981,0,0-3.326-2.051-5.754-.56s-8.773-2.624-9.652-1.348C185.237,97.128,190.765,102.016,188.9,105.418Z" fill="#fff"/>
    <path id="Path_408" data-name="Path 408" d="M185.906,96.879c1.56.014,5.142,1.906,7.548,1.927a2.7,2.7,0,0,0,1.44-.329,3.876,3.876,0,0,1,2.1-.544,8.094,8.094,0,0,1,3.659,1.109c-.175,3.89-3.625,6.981-3.625,6.981,4.056,4.1,6.56,7.118,7.479,10.221a8.661,8.661,0,0,1-8.4,11.064l-6.27-.056-.453,0a9.292,9.292,0,0,1-8.094-13.615,25.549,25.549,0,0,1,7.61-8.218c1.872-3.4-3.668-8.29-3.668-8.29a.75.75,0,0,1,.669-.25Zm-.005-.81a1.535,1.535,0,0,0-1.349.6.807.807,0,0,0,.128,1.078c1.372,1.213,4.613,4.808,3.57,7.134a25.973,25.973,0,0,0-7.709,8.4,10.092,10.092,0,0,0,8.8,14.795l.47,0,6.254.056a9.413,9.413,0,0,0,7.671-3.794,9.294,9.294,0,0,0,1.512-8.307c-.934-3.16-3.422-6.2-7.113-9.989a11.705,11.705,0,0,0,3.3-6.949.8.8,0,0,0-.381-.722,8.916,8.916,0,0,0-4.073-1.223,4.676,4.676,0,0,0-2.524.661,1.93,1.93,0,0,1-1.012.212,15.206,15.206,0,0,1-4.285-1.077,12.09,12.09,0,0,0-3.264-.85Z"/>
    <path id="Path_409" data-name="Path 409" d="M193.344,106.521a.416.416,0,0,1-.18-.044.41.41,0,0,1-.141-.121.39.39,0,0,1-.072-.17.4.4,0,0,1,.012-.185c.643-2.146-1.832-4.464-1.862-4.485a.4.4,0,0,1,.26-.685.4.4,0,0,1,.284.09c.117.108,2.874,2.7,2.091,5.31a.4.4,0,0,1-.392.29Z" fill="#1d1d1b"/>
    <path id="Path_410" data-name="Path 410" d="M194.881,106.585a.4.4,0,0,1-.267-.115.406.406,0,0,1,.006-.57c1.213-1.24.938-4.109.935-4.139a.41.41,0,0,1,.09-.3.4.4,0,0,1,.122-.1.4.4,0,0,1,.151-.046.384.384,0,0,1,.158.015.389.389,0,0,1,.139.074.406.406,0,0,1,.146.274c.012.132.317,3.273-1.159,4.785a.4.4,0,0,1-.147.1.4.4,0,0,1-.174.024Z" fill="#1d1d1b"/>
    <path id="Path_411" data-name="Path 411" d="M196.126,113.424a2.695,2.695,0,0,0-2.625,2.739v.091a2.683,2.683,0,0,0-2.725-2.574,2.614,2.614,0,0,0-2.626,2.739c.279,2.719,3.651,5.1,4.958,5.927a.854.854,0,0,0,.989-.056c1.293-1.038,4.8-4.052,4.757-6.238a2.681,2.681,0,0,0-2.727-2.628Z" fill="#07acee"/>
    <path id="Path_412" data-name="Path 412" d="M193.548,122.883a1.233,1.233,0,0,1-.654-.195c-1.451-.915-4.852-3.357-5.145-6.238a2.749,2.749,0,0,1,.7-2.109,3.192,3.192,0,0,1,2.323-1.075,1.643,1.643,0,0,0,3.189.693,3.068,3.068,0,0,1,2.159-.95h0a3.08,3.08,0,0,1,3.137,3.022c.044,2.334-3.417,5.354-4.908,6.563A1.271,1.271,0,0,1,193.548,122.883Zm-2.7-8.8h-.067a2.427,2.427,0,0,0-1.734.793,1.961,1.961,0,0,0-.5,1.492c.265,2.59,3.723,4.963,4.774,5.629a.456.456,0,0,0,.521-.03c1.084-.876,4.645-3.884,4.6-5.917a2.269,2.269,0,0,0-2.315-2.231h0a2.285,2.285,0,0,0-2.231,2.328v.091l-.806.023a2.281,2.281,0,0,0-2.246-2.177Z" fill="#1d1d1b"/>
    <path id="Path_413" data-name="Path 413" d="M194.767,106.97a25.148,25.148,0,0,1-6.667-1.3.4.4,0,0,1-.232-.205.411.411,0,0,1-.018-.31.405.405,0,0,1,.513-.252c.062.023,6.162,2.1,8.613.89a.4.4,0,0,1,.54.187.408.408,0,0,1-.187.542,5.877,5.877,0,0,1-2.562.451Z"/>
    <path id="Path_414" data-name="Path 414" d="M188.209,135.985a.4.4,0,0,1-.284-.122.412.412,0,0,1,.006-.577.4.4,0,0,1,.286-.116L207.16,135a.386.386,0,0,1,.154.028.409.409,0,0,1,.133.087.392.392,0,0,1,.088.132.409.409,0,0,1-.085.445.4.4,0,0,1-.283.123l-18.942.168Z"/>
    <path id="Path_415" data-name="Path 415" d="M207.038,147.172l-15.443-.145a.4.4,0,0,1-.284-.122.412.412,0,0,1,.006-.577.4.4,0,0,1,.286-.117l15.444.144a.4.4,0,0,1,.284.123.41.41,0,0,1-.007.577.4.4,0,0,1-.286.117Z"/>
    <path id="Path_416" data-name="Path 416" d="M220.215,139.739a.391.391,0,0,1-.278-.121.407.407,0,0,1-.112-.286l.372-35.551a.406.406,0,0,1,.118-.284.389.389,0,0,1,.557,0,.412.412,0,0,1,.113.287l-.372,35.55a.407.407,0,0,1-.119.284A.388.388,0,0,1,220.215,139.739Z"/>
    <path id="Path_417" data-name="Path 417" d="M201.765,91.157l-32.344-.3a.667.667,0,0,1-.473-.2.688.688,0,0,1,.01-.964.669.669,0,0,1,.477-.2l32.344.3a.668.668,0,0,1,.474.2.691.691,0,0,1-.01.964A.671.671,0,0,1,201.765,91.157Z" fill="#fff"/>
    <path id="Path_418" data-name="Path 418" d="M53.14,126.968,39.6,88.079a16.258,16.258,0,0,1,.931-12.838h0a16.239,16.239,0,0,1,9.187-7.9L92.4,52.862a2.506,2.506,0,0,1,3.2,1.6l26.119,80.486a2.524,2.524,0,0,1-2.771,3.28l-63.806-9.614a2.507,2.507,0,0,1-2.005-1.649Z" fill="#fff"/>
    <path id="Path_419" data-name="Path 419" d="M93.228,52.737a2.5,2.5,0,0,1,2.362,1.735l26.119,80.486a2.526,2.526,0,0,1-2.409,3.31,2.445,2.445,0,0,1-.362-.03l-63.806-9.616a2.5,2.5,0,0,1-1.992-1.654L39.6,88.079A16.258,16.258,0,0,1,49.714,67.345L92.4,52.862a2.546,2.546,0,0,1,.829-.133Zm.009-.816a3.282,3.282,0,0,0-1.092.176L49.459,66.581A17.069,17.069,0,0,0,38.836,88.347L52.38,127.236a3.308,3.308,0,0,0,2.63,2.177l63.806,9.627a3.146,3.146,0,0,0,.475.039,3.353,3.353,0,0,0,3.306-2.812,3.282,3.282,0,0,0-.126-1.558L96.355,54.223a3.307,3.307,0,0,0-3.12-2.291Z"/>
    <path id="Path_420" data-name="Path 420" d="M41.964,78.624l39.386,45.035-8.049,2.9L39.149,90.772Z" fill="#ebebeb"/>
    <path id="Path_421" data-name="Path 421" d="M39.322,74.978A16.259,16.259,0,0,0,38.4,87.807l1.861,5.349c1.1-4.739,8.873-5.958,8.873-5.958-7.261-9.391-3.931-16.8-2.254-19.456a16.235,16.235,0,0,0-7.553,7.237Z" fill="#07acee"/>
    <path id="Path_422" data-name="Path 422" d="M44.938,69.78c-1.454,3.628-2.3,9.666,2.8,16.886-1.946.486-5.6,1.706-7.383,4.319l-1.2-3.446A15.444,15.444,0,0,1,44.938,69.78Zm1.937-2.039A16.249,16.249,0,0,0,38.4,87.807l1.861,5.349c1.1-4.739,8.873-5.958,8.873-5.958-7.261-9.391-3.931-16.8-2.255-19.456Z"/>
    <path id="Path_423" data-name="Path 423" d="M37.515,178.647,9.687,148.375a16.2,16.2,0,0,1-4.222-12.142h0a16.279,16.279,0,0,1,5.326-10.9L44.308,95.077a2.509,2.509,0,0,1,3.567.2l55.843,63.432a2.526,2.526,0,0,1-1.251,4.109L40,179.374a2.5,2.5,0,0,1-2.486-.727Z" fill="#fff"/>
    <path id="Path_424" data-name="Path 424" d="M46.016,94.425a2.5,2.5,0,0,1,1.87.848L103.728,158.7a2.527,2.527,0,0,1-1.25,4.11L40.012,179.369a2.406,2.406,0,0,1-.664.085,2.507,2.507,0,0,1-1.822-.81L9.688,148.376a16.252,16.252,0,0,1,1.1-23.039L44.309,95.078a2.511,2.511,0,0,1,1.707-.648Zm.009-.8a3.317,3.317,0,0,0-2.255.856L10.253,124.737A17.044,17.044,0,0,0,9.1,148.925L36.923,179.2a3.319,3.319,0,0,0,2.4,1.071,3.391,3.391,0,0,0,.88-.111L102.67,163.6a3.338,3.338,0,0,0,1.652-5.429L48.48,94.742a3.318,3.318,0,0,0-2.455-1.12Z"/>
    <path id="Path_425" data-name="Path 425" d="M4.288,136.4A16.2,16.2,0,0,0,8.5,148.532l3.825,4.164c-.865-4.784,5.8-9,5.8-9C7.739,137.98,7.881,129.857,8.375,126.756A16.279,16.279,0,0,0,4.288,136.4Z" fill="#07acee"/>
    <path id="Path_426" data-name="Path 426" d="M7.387,129.4c.1,3.9,1.7,9.777,9.245,14.371-1.6,1.219-4.473,3.791-5.083,6.9l-2.466-2.685a15.408,15.408,0,0,1-1.7-18.582Zm.977-2.639a16.228,16.228,0,0,0,.129,21.776l3.825,4.163c-.865-4.784,5.8-9,5.8-9C7.729,137.982,7.87,129.86,8.364,126.759Z"/>
    <path id="Path_427" data-name="Path 427" d="M27.1,139.129l-4.919,4.178a2.915,2.915,0,0,0-.341,4.108L26,152.322a2.914,2.914,0,0,0,4.108.329l4.919-4.178a2.916,2.916,0,0,0,.341-4.109L31.2,139.458A2.914,2.914,0,0,0,27.1,139.129Z" fill="#07acee"/>
    <path id="Path_428" data-name="Path 428" d="M28.225,153.879l-.242,0a3.284,3.284,0,0,1-2.253-1.158l-4.159-4.913a3.336,3.336,0,0,1,.389-4.684l4.91-4.185a3.3,3.3,0,0,1,4.67.377l4.167,4.9a3.329,3.329,0,0,1-.386,4.684l-4.91,4.183a3.286,3.286,0,0,1-2.187.794Zm.812-14.934a2.494,2.494,0,0,0-1.645.6l-4.913,4.182a2.527,2.527,0,0,0-.293,3.546l4.157,4.912a2.5,2.5,0,0,0,3.535.287l4.91-4.185a2.515,2.515,0,0,0,.309-3.544l-4.159-4.915a2.486,2.486,0,0,0-1.706-.876Z"/>
    <path id="Path_429" data-name="Path 429" d="M43.609,106.867,17.742,128.836a2.878,2.878,0,0,0-.337,4.055l0,0a2.875,2.875,0,0,0,4.055.325l25.867-21.969a2.878,2.878,0,0,0,.337-4.055l0,0A2.876,2.876,0,0,0,43.609,106.867Z" fill="#07acee"/>
    <path id="Path_430" data-name="Path 430" d="M19.6,134.457a3.265,3.265,0,0,1-3.049-2.165,3.3,3.3,0,0,1,.967-3.626l25.854-22.024a3.281,3.281,0,0,1,4.239,5.008L21.757,133.676a3.273,3.273,0,0,1-2.154.781Zm25.92-27.783a2.464,2.464,0,0,0-1.618.592L18.048,129.29a2.476,2.476,0,1,0,3.2,3.778L47.1,111.045a2.482,2.482,0,0,0-.157-3.913,2.457,2.457,0,0,0-1.4-.458Z"/>
    <path id="Path_431" data-name="Path 431" d="M38,138.287a.4.4,0,0,1-.166-.036.408.408,0,0,1-.136-.1.4.4,0,0,1,.047-.57l21.082-17.959a.409.409,0,0,1,.138-.079.417.417,0,0,1,.157-.02.406.406,0,0,1,.153.042.411.411,0,0,1,.125.1.406.406,0,0,1,.1.3.411.411,0,0,1-.042.153.4.4,0,0,1-.1.125L38.277,138.193a.4.4,0,0,1-.272.094Z"/>
    <path id="Path_432" data-name="Path 432" d="M50.3,152.769a.4.4,0,0,1-.167-.039.405.405,0,0,1-.212-.242.4.4,0,0,1-.018-.157.41.41,0,0,1,.043-.152.4.4,0,0,1,.1-.123L71.129,134.1a.409.409,0,0,1,.3-.1.406.406,0,0,1,.375.436.41.41,0,0,1-.14.279L50.574,152.671A.392.392,0,0,1,50.3,152.769Z"/>
    <path id="Path_433" data-name="Path 433" d="M86.882,64.235,54.624,74.778A2.879,2.879,0,0,0,52.775,78.4v0A2.872,2.872,0,0,0,56.4,80.239L88.661,69.7a2.878,2.878,0,0,0,1.849-3.624v0A2.873,2.873,0,0,0,86.882,64.235Z" fill="#07acee"/>
    <path id="Path_434" data-name="Path 434" d="M55.489,80.745a3.276,3.276,0,0,1-3.2-2.79,3.307,3.307,0,0,1,2.225-3.634l32.243-10.6a3.269,3.269,0,0,1,4.134,2.1,3.3,3.3,0,0,1-2.107,4.155l-32.24,10.6a3.321,3.321,0,0,1-1.055.163ZM87.8,64.363a2.437,2.437,0,0,0-.794.125l-32.243,10.6a2.482,2.482,0,1,0,1.532,4.722l32.24-10.6A2.485,2.485,0,0,0,87.8,64.35Z"/>
    <path id="Path_435" data-name="Path 435" d="M57.569,95.1a.4.4,0,0,1-.12-.784l38.7-12.736a.4.4,0,0,1,.513.253.408.408,0,0,1-.253.516L57.706,95.082a.415.415,0,0,1-.137.015Z"/>
    <path id="Path_436" data-name="Path 436" d="M59.9,101.444a.4.4,0,0,1-.259-.1.406.406,0,0,1-.079-.517.41.41,0,0,1,.218-.174L98.135,88.031a.4.4,0,0,1,.513.253.408.408,0,0,1-.253.516L60.039,101.423a.417.417,0,0,1-.14.021Z"/>
    <path id="Path_437" data-name="Path 437" d="M82.831,103a.4.4,0,0,1-.259-.1.406.406,0,0,1,.139-.69l19.771-6.506a.4.4,0,0,1,.156-.021.405.405,0,0,1,.153.041.4.4,0,0,1,.125.1.4.4,0,0,1,.079.137.419.419,0,0,1,.021.157.428.428,0,0,1-.041.153.415.415,0,0,1-.1.126.41.41,0,0,1-.137.08l-19.768,6.506a.363.363,0,0,1-.142.02Z"/>
    <path id="Path_438" data-name="Path 438" d="M29.8,148.834a.4.4,0,0,1-.123-.02l-4.67-1.557a.4.4,0,0,1-.215-.2.4.4,0,0,1,.176-.526.4.4,0,0,1,.3-.034l4.066,1.352-.76-6.054a.406.406,0,0,1,.351-.451.4.4,0,0,1,.4.2.4.4,0,0,1,.049.149l.836,6.692a.408.408,0,0,1-.025.2.4.4,0,0,1-.118.162.408.408,0,0,1-.261.092Z"/>
    <path id="Path_439" data-name="Path 439" d="M37.239,161.506l4.444.417-.473-6.054" fill="#4bd657"/>
    <path id="Path_440" data-name="Path 440" d="M41.679,162.327h-.032l-4.448-.415a.405.405,0,0,1,.079-.807l3.968.371-.436-5.576a.408.408,0,0,1,.019-.157.4.4,0,0,1,.077-.138.4.4,0,0,1,.71.229l.467,6.055a.408.408,0,0,1-.108.309.4.4,0,0,1-.136.1.4.4,0,0,1-.163.033Z"/>
    <path id="Path_441" data-name="Path 441" d="M7.062,151.313a.4.4,0,0,1-.267-.11A18.409,18.409,0,0,1,1.2,132.879a26.26,26.26,0,0,1,4.089-9.042.405.405,0,0,1,.266-.156.4.4,0,0,1,.3.078.405.405,0,0,1,.077.566,25.9,25.9,0,0,0-3.952,8.763c-1.571,6.738.235,12.642,5.366,17.531a.4.4,0,0,1,.091.128.409.409,0,0,1,.035.154.4.4,0,0,1-.248.381A.4.4,0,0,1,7.062,151.313Z"/>
    <path id="Path_442" data-name="Path 442" d="M67.764,56.636a.4.4,0,0,1-.115-.79L87.234,49.6a.4.4,0,0,1,.242.77L67.89,56.616a.338.338,0,0,1-.126.02Z"/>
    <path id="Path_443" data-name="Path 443" d="M161.794,184.811s15.235,11.5,26.678,7.09S168.977,167.357,161.794,184.811Z" fill="#07acee"/>
    <path id="Path_444" data-name="Path 444" d="M182.5,193.321c-10.088-.09-20.427-7.794-20.949-8.186l-.251-.188.122-.29c2.25-5.471,7.11-7.982,13.676-7.074,7.561,1.048,15.783,6.583,16.272,10.97.132,1.165-.238,2.754-2.75,3.723a16.5,16.5,0,0,1-6.12,1.045Zm-20.21-8.649c2.026,1.452,15.735,10.824,26.037,6.85,1.619-.627,2.383-1.6,2.238-2.876-.411-3.63-7.829-9.19-15.578-10.261C171.454,177.9,165.18,178.081,162.291,184.672Z" fill="#1d1d1b"/>
    <path id="Path_445" data-name="Path 445" d="M106.286,96.217s-1.723,9.995-8.624,7.208-21.588-8.886-26.755,1.3-4.272,12.42-12.218,11.471-23.678,11.269-8.028,27.4,68.493-35.733,68.493-35.733l-.468-6.268Z" fill="#382256"/>
    <path id="Path_446" data-name="Path 446" d="M58.624,147.1h-.04a11.163,11.163,0,0,1-8.219-3.232c-8.722-8.987-7.143-16.144-5.426-19.611,2.831-5.716,9.418-8.994,13.8-8.464,6.172.744,6.673-.334,9.447-6.317.655-1.414,1.4-3.015,2.368-4.923,5.271-10.391,19.946-4.454,27-1.6l.268.107a4.643,4.643,0,0,0,4.157-.059c2.974-1.665,3.909-6.792,3.918-6.843l.086-.506,13.1,5.676.5,6.7-.133.134A292.227,292.227,0,0,1,96.912,127.69C80.2,140.64,67.321,147.179,58.624,147.1Zm-.8-30.556c-4.07-.036-9.655,3.008-12.161,8.072-2.8,5.655-.926,12.291,5.283,18.689a10.394,10.394,0,0,0,7.649,2.987h.038c19.757.177,57.547-36.11,60.108-38.581l-.438-5.837-11.72-5.081c-.322,1.408-1.449,5.373-4.217,6.913a5.378,5.378,0,0,1-4.838.1l-.268-.107c-6.829-2.754-21.044-8.512-25.977,1.216-.964,1.9-1.7,3.486-2.354,4.9-2.777,5.986-3.523,7.6-10.285,6.78a7.238,7.238,0,0,0-.819-.058Z" fill="#1d1e1b"/>
    <path id="Path_447" data-name="Path 447" d="M131.542,109.78c64.814,21.913,30.426,51.951,35.093,111.747l-102.85.58S49.7,153.73,109.543,111.667" fill="#07acee"/>
    <path id="Path_448" data-name="Path 448" d="M63.458,222.514l-.066-.321a116.987,116.987,0,0,1,.438-39.6,108.014,108.014,0,0,1,45.489-71.252l.465.671a107.9,107.9,0,0,0-45.149,70.7,117.52,117.52,0,0,0-.5,39l102.068-.577c-1.367-18.189.832-33.43,2.772-46.89,2.2-15.269,3.941-27.328-.389-37.686-4.676-11.148-16.135-19.29-37.159-26.4l.258-.765c21.262,7.188,32.865,15.469,37.646,26.846,4.428,10.556,2.674,22.712.454,38.1-1.952,13.527-4.163,28.858-2.735,47.149l.033.431Z" fill="#1d1d1b"/>
    <path id="Path_449" data-name="Path 449" d="M115.02,110.511s-34.1,4.652-54.356,19.931C43.622,143.3,39.342,150.031,29.4,167.447c-8.309,14.562-7.878,37.531,11.8,41.284s36.055,4.989,37.169-5.9l6.026-1.158-.243-24.66-3.527.062" fill="#07acee"/>
    <path id="Path_450" data-name="Path 450" d="M62.611,211.8c-6.482-.057-14.155-1.281-21.484-2.678-7.008-1.336-12.177-5.242-14.952-11.292-3.884-8.47-2.724-20.765,2.879-30.59,10.021-17.56,14.354-24.288,31.37-37.13,20.1-15.161,54.2-19.97,54.545-20.01l.107.808c-.342.048-34.236,4.808-54.168,19.855-16.891,12.741-21.194,19.426-31.155,36.882-5.477,9.608-6.625,21.6-2.847,29.849,2.662,5.8,7.631,9.55,14.382,10.838,13.257,2.541,27.611,4.5,33.683-.028a7.454,7.454,0,0,0,3.015-5.52l.03-.3L84,201.34l-.235-23.918-3.121.056-.013-.808,3.93-.064.256,25.4-6.063,1.162a8.292,8.292,0,0,1-3.287,5.787C72.576,211.094,68.006,211.853,62.611,211.8Z" fill="#1d1d1b"/>
    <path id="Path_451" data-name="Path 451" d="M80.228,177.451s-7.073,9.2-2.238,24.645l5.912-.935-.284-23.7Z" fill="#0598c6"/>
    <path id="Path_452" data-name="Path 452" d="M95.074,128.471a2.373,2.373,0,1,0-2.339-2.395A2.373,2.373,0,0,0,95.074,128.471Z" fill="#51cef4"/>
    <path id="Path_453" data-name="Path 453" d="M64.561,153.812a2.373,2.373,0,1,0-2.339-2.395A2.373,2.373,0,0,0,64.561,153.812Z" fill="#51cef4"/>
    <path id="Path_454" data-name="Path 454" d="M101.209,155.053a2.373,2.373,0,1,0-2.338-2.395A2.373,2.373,0,0,0,101.209,155.053Z" fill="#51cef4"/>
    <path id="Path_455" data-name="Path 455" d="M130.7,144.271a2.373,2.373,0,1,0-2.338-2.395A2.374,2.374,0,0,0,130.7,144.271Z" fill="#51cef4"/>
    <path id="Path_456" data-name="Path 456" d="M42,196.135a2.373,2.373,0,1,0-2.339-2.395A2.373,2.373,0,0,0,42,196.135Z" fill="#51cef4"/>
    <path id="Path_457" data-name="Path 457" d="M61.955,180.6a2.373,2.373,0,1,0-2.339-2.394A2.372,2.372,0,0,0,61.955,180.6Z" fill="#51cef4"/>
    <path id="Path_458" data-name="Path 458" d="M66.358,204.248a2.374,2.374,0,1,0-2.339-2.4A2.374,2.374,0,0,0,66.358,204.248Z" fill="#51cef4"/>
    <path id="Path_459" data-name="Path 459" d="M157.335,216.516a2.373,2.373,0,1,0-2.339-2.4A2.373,2.373,0,0,0,157.335,216.516Z" fill="#51cef4"/>
    <path id="Path_460" data-name="Path 460" d="M34.032,178.427l-.333-.737c.167-.076,16.887-7.632,29.074-8.539a21,21,0,0,1,18.455,7.777l-.667.46a20.178,20.178,0,0,0-17.73-7.43C50.782,170.856,34.2,178.351,34.032,178.427Z" fill="#1d1d1b"/>
    <path id="Path_461" data-name="Path 461" d="M75.015,148.082S67.174,158.86,66.7,169.611Z" fill="#07acee"/>
    <path id="Path_462" data-name="Path 462" d="M67.1,169.628l-.8-.034c.47-10.756,8.311-21.643,8.39-21.75l.649.474C75.264,148.425,67.575,159.125,67.1,169.628Z" fill="#1d1d1b"/>
    <path id="Path_463" data-name="Path 463" d="M112.692,111.162s-5.8,7.44,3.093,9.958c6.39,1.812,8.185-2.554,8.185-2.554s3.425,4.343,10.18,1.258c4.392-2,1.257-8.165,1.257-8.165C126,109.182,122.339,109.052,112.692,111.162Z" fill="#fff"/>
    <path id="Path_464" data-name="Path 464" d="M118.59,121.961a11.073,11.073,0,0,1-2.911-.451c-2.733-.774-4.417-2.09-5.01-3.912-1.018-3.132,1.6-6.539,1.708-6.683l.09-.116.143-.031c9.642-2.112,13.283-2.037,22.9.5l.174.047.085.16c.073.146,1.788,3.57.847,6.27a4.127,4.127,0,0,1-2.3,2.448c-5.656,2.584-9.138.093-10.261-.957A6.155,6.155,0,0,1,118.59,121.961Zm-5.66-10.435c-.426.594-2.285,3.393-1.5,5.823.521,1.549,2.008,2.688,4.465,3.384a10.374,10.374,0,0,0,2.728.423,5.088,5.088,0,0,0,4.973-2.744l.275-.634.425.543c.132.165,3.325,4.05,9.7,1.14a3.345,3.345,0,0,0,1.868-1.977c.722-2.074-.417-4.795-.73-5.477C125.846,109.572,122.24,109.5,112.93,111.526Z" fill="#1d1e1b"/>
    <path id="Path_465" data-name="Path 465" d="M115.838,95.98s1.091,10.433-2.566,15.5c0,0,11.212,11.767,19.788-.413,0,0-7.955-12.3-6.377-15.844S115.838,95.98,115.838,95.98Z" fill="#ffcdb2"/>
    <path id="Path_466" data-name="Path 466" d="M123.815,116.993c-5.828-.05-10.624-5.013-10.834-5.233l-.233-.244.2-.268c3.524-4.877,2.5-15.113,2.49-15.218l-.031-.318.3-.105c1.617-.562,9.766-3.275,11.245-1.656a1.234,1.234,0,0,1,.1,1.441c-1.223,2.741,4.157,12.089,6.346,15.459l.148.231-.158.222c-2.47,3.508-5.4,5.415-8.717,5.667C124.384,116.987,124.1,117,123.815,116.993Zm-10.02-5.562c1.062,1.024,5.7,5.118,10.821,4.729,2.993-.23,5.659-1.946,7.956-5.1-1.306-2.049-7.806-12.524-6.26-16,.121-.268.134-.462.042-.565-.8-.882-6.28.484-10.09,1.768.159,1.8.7,10.414-2.469,15.171Z" fill="#1d1d1b"/>
    <path id="Path_467" data-name="Path 467" d="M117.763,69.214a11.3,11.3,0,1,0-11.122-11.4A11.316,11.316,0,0,0,117.763,69.214Z" fill="#382256"/>
    <path id="Path_468" data-name="Path 468" d="M117.737,69.618a11.7,11.7,0,1,1,1.15-.047Q118.309,69.623,117.737,69.618Zm.3-22.615c-.354,0-.712.013-1.075.045A10.923,10.923,0,0,0,110.9,66.26a10.709,10.709,0,0,0,7.913,2.492A10.9,10.9,0,0,0,118.033,47Z" fill="#1d1e1b"/>
    <path id="Path_469" data-name="Path 469" d="M129.534,61.487c-5.282-7.78-17.757-4.888-20.63-.986-7.133,9.661-15.291,6.132-15.851,15.853-.279,4.88,4.138,6.335,2.956,15.336-.609,4.643,7.676,10.922,14.607,10.3s22.852,4.371,30.774-4.828c3.579-4.157,9.192-16.618,1.992-25.778C136.1,62.12,131.826,64.86,129.534,61.487Z" fill="#382256"/>
    <path id="Path_470" data-name="Path 470" d="M125.311,103.181c-2.7-.023-5.368-.267-7.735-.484a43.313,43.313,0,0,0-6.927-.313c-4.852.43-9.91-2.358-12.563-5.131-1.818-1.9-2.7-3.9-2.471-5.626A15.688,15.688,0,0,0,94,81.525a10.143,10.143,0,0,1-1.34-5.207c.333-5.623,3.131-7.021,6.686-8.792a22.663,22.663,0,0,0,9.244-7.278c1.751-2.371,6.4-4.106,10.863-4.067h.156c4.449.079,8.094,1.882,10.265,5.076.792,1.178,1.862,1.54,3.352,2.046,2.493.846,5.907,2.006,10.478,7.82,7.372,9.371,1.712,21.98-2,26.292C137.573,102.2,131.312,103.233,125.311,103.181Zm-13.1-1.658c1.565.013,3.4.182,5.444.37,7.482.686,17.727,1.626,23.437-5a25.808,25.808,0,0,0,4.958-10.827c.772-3.882.883-9.54-2.969-14.437-4.426-5.624-7.711-6.74-10.118-7.555-1.568-.533-2.807-.953-3.757-2.354-2.021-2.98-5.436-4.652-9.614-4.726h-.148c-4.632-.04-8.811,1.858-10.2,3.739a23.518,23.518,0,0,1-9.533,7.52c-3.449,1.718-5.942,2.962-6.24,8.115a9.411,9.411,0,0,0,1.266,4.815,16.4,16.4,0,0,1,1.687,10.55c-.194,1.477.608,3.237,2.256,4.964,2.521,2.639,7.328,5.293,11.916,4.886.5-.045,1.038-.061,1.628-.056Z" fill="#1d1e1b"/>
    <path id="Path_471" data-name="Path 471" d="M124.009,80.945c-5.634,1.484-13.414-.66-14.639,1.442s-.1,4.792,3.008,5.325,6.166.292,12.4-.5,12.291-2.032,11.427-5.36S132.3,78.759,124.009,80.945Z" fill="#ffb49f"/>
    <path id="Path_472" data-name="Path 472" d="M119.294,64.724c-1.446,9.108-10.048,13.989-14.884,14.871-.838,2.814.023,6.431.295,9.623,1,11.726,8.1,19.643,19.236,17.876,10.874-1.723,16.084-8.521,14.852-21.426-.29-3.047-.43-6.082-1.633-8.628C127.864,77.84,119.294,64.724,119.294,64.724Z" fill="#ffcdb2"/>
    <path id="Path_473" data-name="Path 473" d="M120.78,107.741a14.946,14.946,0,0,1-9.289-3.136c-4.062-3.187-6.611-8.638-7.186-15.349-.069-.792-.175-1.633-.279-2.444-.322-2.528-.655-5.139,0-7.33l.072-.239.245-.044c5.231-.954,13.221-6.1,14.558-14.537l.165-1.032.569.872c.082.125,8.019,12.107,16.644,12.182.269,0,.567-.009.852-.033l.268-.024.121.251c1.09,2.3,1.323,4.9,1.571,7.661q.046.546.1,1.091c.616,6.444-.379,11.55-2.96,15.178-2.521,3.55-6.637,5.8-12.23,6.686A19.671,19.671,0,0,1,120.78,107.741Zm-16.055-27.8c-.514,1.985-.206,4.41.094,6.76.1.822.212,1.671.281,2.479.554,6.487,3,11.738,6.882,14.784a14.959,14.959,0,0,0,11.891,2.727c10.949-1.736,15.695-8.6,14.513-20.987l-.1-1.094a23,23,0,0,0-1.381-7.14c-.22,0-.443.018-.66.016-7.8-.067-14.757-8.965-16.74-11.744-1.862,8.563-9.841,13.194-14.775,14.2Z" fill="#1d1d1b"/>
    <path id="Path_474" data-name="Path 474" d="M122.926,81.742c-6.7,1.828-16.008-.632-17.447,1.891s-.064,5.717,3.65,6.314,7.359.279,14.792-.739,14.638-2.566,13.571-6.527S132.772,79.038,122.926,81.742Z" fill="#ffb49f"/>
    <path id="Path_475" data-name="Path 475" d="M121.747,92.353a.4.4,0,0,1-.394-.369l-.788-9.2a.4.4,0,0,1,.017-.157.406.406,0,0,1,.2-.238.4.4,0,0,1,.15-.044.406.406,0,0,1,.157.017.4.4,0,0,1,.137.076.39.39,0,0,1,.1.123.386.386,0,0,1,.044.152l.786,9.2a.437.437,0,0,1-.017.157.408.408,0,0,1-.076.138.4.4,0,0,1-.273.143Z"/>
    <path id="Path_476" data-name="Path 476" d="M109.821,55.573a.729.729,0,0,1-.212-.034.672.672,0,0,1-.415-.855,10.264,10.264,0,0,1,8.189-6.321.666.666,0,0,1,.268,0,.658.658,0,0,1,.246.107.676.676,0,0,1,.185.2.669.669,0,0,1,.092.252.659.659,0,0,1-.013.269.674.674,0,0,1-.575.5,8.926,8.926,0,0,0-7.123,5.429.676.676,0,0,1-.642.452Z" fill="#fff"/>
    <path id="Path_477" data-name="Path 477" d="M109.24,81.876a.4.4,0,0,1-.233-.077.4.4,0,0,1-.107-.115.392.392,0,0,1-.054-.148.4.4,0,0,1,.006-.158.419.419,0,0,1,.067-.143c.148-.2,3.636-4.876,8.184-3.766a.4.4,0,0,1,.248.183.4.4,0,0,1-.442.6c-4.02-.981-7.307,3.415-7.339,3.458a.405.405,0,0,1-.145.122.4.4,0,0,1-.185.042Z"/>
    <path id="Path_478" data-name="Path 478" d="M130.367,78.125a.407.407,0,0,1-.252-.091c-3.566-2.959-6.8-1.14-6.94-1.052a.4.4,0,0,1-.552-.145.412.412,0,0,1-.041-.307.407.407,0,0,1,.187-.247,7.032,7.032,0,0,1,7.861,1.128.4.4,0,0,1,.117.457.411.411,0,0,1-.155.193.405.405,0,0,1-.239.066Z"/>
    <path id="Path_479" data-name="Path 479" d="M118.6,88.164a.4.4,0,0,1-.165-.036.392.392,0,0,1-.135-.1c-2.06-2.372-6.157-.109-6.2-.088a.4.4,0,0,1-.395-.705c.192-.106,4.711-2.608,7.2.259a.4.4,0,0,1,.078.137.417.417,0,0,1,.02.157.406.406,0,0,1-.042.153.411.411,0,0,1-.1.125.391.391,0,0,1-.267.1Z"/>
    <path id="Path_480" data-name="Path 480" d="M124.288,87.2a.4.4,0,0,1-.283-.121.4.4,0,0,1-.116-.287.4.4,0,0,1,.122-.285c.035-.035,3.483-3.356,7.741-1.479a.4.4,0,0,1,.214.223.406.406,0,0,1-.23.524.4.4,0,0,1-.309-.006c-3.745-1.652-6.733,1.191-6.853,1.314a.4.4,0,0,1-.286.116Z"/>
    <path id="Path_481" data-name="Path 481" d="M156.314,182.506c-5.4-10.779-14.116-28.286-12.708-37.142s7.769-9.5,7.769-9.5l-.282-6.792,22.829-6.09,1.184,4.426s14.825-.6,16.592,20.451c1.791,21.362,15.274,49.874-15.089,53.572C167.566,202.538,159.093,188.047,156.314,182.506Z" fill="#07acee"/>
    <path id="Path_482" data-name="Path 482" d="M175.56,201.9c-9.516-.085-17.958-15.923-19.6-19.207-5.308-10.585-14.184-28.3-12.741-37.388,1.241-7.792,6.317-9.453,7.748-9.768l-.267-6.439a.411.411,0,0,1,.079-.256.4.4,0,0,1,.221-.15l22.83-6.093a.4.4,0,0,1,.3.042.405.405,0,0,1,.187.245l1.106,4.127a15.233,15.233,0,0,1,7.538,2.392c3.661,2.312,8.219,7.385,9.144,18.428.372,4.443,1.272,9.3,2.143,14,2.209,11.932,4.5,24.258-1.243,32.1-3.2,4.37-8.547,6.957-16.335,7.907A8.218,8.218,0,0,1,175.56,201.9Zm-18.884-19.572c1.668,3.325,10.47,19.858,19.892,18.709,7.557-.92,12.717-3.4,15.781-7.581,5.533-7.55,3.281-19.714,1.1-31.473-.871-4.714-1.773-9.593-2.153-14.077-.712-8.455-3.728-14.606-8.732-17.789a14.339,14.339,0,0,0-7.443-2.292.4.4,0,0,1-.253-.078.4.4,0,0,1-.149-.218l-1.08-4.046-22.13,5.905.267,6.46a.4.4,0,0,1-.362.419c-.247.028-6.07.737-7.408,9.158-1.4,8.835,7.4,26.4,12.671,36.9Z" fill="#1d1d1b"/>
    <path id="Path_483" data-name="Path 483" d="M151.827,136.25s14.72,3.13,22.854-8.514l-1.047-4.395-22.021,6.1Z" fill="#0598c6"/>
    <path id="Path_484" data-name="Path 484" d="M175.3,193.063a2.365,2.365,0,1,0-2.954-1.576A2.372,2.372,0,0,0,175.3,193.063Z" fill="#51cef4"/>
    <path id="Path_485" data-name="Path 485" d="M182.607,169.876a2.365,2.365,0,1,0-2.954-1.576A2.37,2.37,0,0,0,182.607,169.876Z" fill="#51cef4"/>
    <path id="Path_486" data-name="Path 486" d="M179.77,145.93a2.365,2.365,0,1,0-2.955-1.576A2.371,2.371,0,0,0,179.77,145.93Z" fill="#51cef4"/>
    <path id="Path_487" data-name="Path 487" d="M157.027,152.954a2.366,2.366,0,1,0-2.954-1.577A2.371,2.371,0,0,0,157.027,152.954Z" fill="#51cef4"/>
    <path id="Path_488" data-name="Path 488" d="M123.685,99.652a6.46,6.46,0,0,1-2.61-.563.4.4,0,0,1,.368-.718c.182.09,4.337,2.124,7.071-2.686a.4.4,0,0,1,.1-.129.411.411,0,0,1,.143-.079.405.405,0,0,1,.163-.016.393.393,0,0,1,.155.05.4.4,0,0,1,.123.108.4.4,0,0,1,.016.464C127.554,99,125.372,99.668,123.685,99.652Z"/>
    <path id="Path_489" data-name="Path 489" d="M170.822,123.625s-1.679-2.924-1.074-4.617,5.023-8.177,6.118-12.889c1.064-4.582-2.344-6.181-7.3-.313,0,0,1.573-7.071-3.2-6.487a16.334,16.334,0,0,0-3.516-7.454c-2.646-3.32-6.048-.052-4.435,3.38,1.352,2.868,1.892,4.014,2.037,5.21,0,0-4.549.768-1.732,4.054,0,0,.769,3.14-1.606,3.435s.379-6.923-1.1-9.161-5.357-.956-6.534,6.064-2.207,10.185-.046,14.771a85.316,85.316,0,0,1,3.414,9.615Z" fill="#ffcdb2"/>
    <path id="Path_490" data-name="Path 490" d="M151.845,129.636a.408.408,0,0,1-.19-.047.406.406,0,0,1-.193-.241,86.512,86.512,0,0,0-3.379-9.558c-1.926-4.078-1.4-7.01-.455-12.342.149-.828.3-1.71.465-2.666.815-4.865,2.9-6.974,4.59-7.349a2.5,2.5,0,0,1,2.671,1.127c.759,1.153.537,3.267.323,5.308-.157,1.5-.335,3.2.082,3.61.029.03.1.1.308.073a1.365,1.365,0,0,0,.584-.17,1.381,1.381,0,0,0,.455-.4,3.336,3.336,0,0,0,.244-2.272,2.837,2.837,0,0,1-.838-2.764,3.572,3.572,0,0,1,2.484-1.79,23.445,23.445,0,0,0-1.943-4.724,3.816,3.816,0,0,1,1.05-4.941c1.016-.64,2.619-.677,4.066,1.133a17.289,17.289,0,0,1,3.537,7.274,2.967,2.967,0,0,1,2.472.923c1.1,1.215,1.118,3.336.984,4.724,2.325-2.427,4.511-3.431,5.975-2.7,1.2.6,1.617,2.235,1.123,4.368-.756,3.253-3.087,7.37-4.632,10.094a28,28,0,0,0-1.5,2.84c-.443,1.245.6,3.505,1.046,4.281a.393.393,0,0,1,.053.173.41.41,0,0,1-.027.18.415.415,0,0,1-.108.151.407.407,0,0,1-.163.086l-18.976,5.607A.37.37,0,0,1,151.845,129.636Zm1.4-31.456a1.781,1.781,0,0,0-.409.042c-1.345.293-3.213,2.219-3.962,6.7-.159.959-.316,1.846-.466,2.687-.917,5.166-1.433,8.012.4,11.847a80.124,80.124,0,0,1,3.321,9.288l18.113-5.351c-.461-.924-1.382-3.062-.866-4.508a26.283,26.283,0,0,1,1.561-2.969c1.52-2.678,3.815-6.736,4.546-9.877.4-1.719.132-3.045-.7-3.462-.955-.482-3.074.149-5.9,3.5a.4.4,0,0,1-.7-.347c0-.038.822-3.8-.594-5.362a2.339,2.339,0,0,0-2.163-.632.4.4,0,0,1-.3-.082.412.412,0,0,1-.1-.119.4.4,0,0,1-.048-.15,16.081,16.081,0,0,0-3.433-7.251c-.947-1.187-2.073-1.544-3.008-.955a3.051,3.051,0,0,0-.748,3.907c1.358,2.881,1.921,4.073,2.073,5.334a.406.406,0,0,1-.335.446c-.522.09-1.944.508-2.251,1.359-.194.537.061,1.22.76,2.039a.4.4,0,0,1,.084.165,4.269,4.269,0,0,1-.343,3.011,2.166,2.166,0,0,1-1.605.921,1.126,1.126,0,0,1-.97-.3c-.693-.681-.51-2.343-.317-4.269.19-1.812.4-3.867-.2-4.779a1.708,1.708,0,0,0-1.445-.833Z" fill="#1d1d1b"/>
    <path id="Path_491" data-name="Path 491" d="M157.921,104.692s1.834,1.812,7.314.314Z" fill="#ffcdb2"/>
    <path id="Path_492" data-name="Path 492" d="M161.24,106c-2.54-.022-3.535-.962-3.593-1.019a.408.408,0,0,1-.009-.575.4.4,0,0,1,.284-.124.4.4,0,0,1,.287.114c.035.033,1.821,1.607,6.928.217a.4.4,0,0,1,.494.286.407.407,0,0,1-.285.5,15.269,15.269,0,0,1-4.106.6Z" fill="#1d1d1b"/>
    <path id="Path_493" data-name="Path 493" d="M159.435,100.474a47.462,47.462,0,0,1,5.927-1.142Z" fill="#ffcdb2"/>
    <path id="Path_494" data-name="Path 494" d="M159.431,100.878a.408.408,0,0,1-.1-.811,48.473,48.473,0,0,1,5.98-1.15.4.4,0,0,1,.3.084.409.409,0,0,1-.2.727,47.992,47.992,0,0,0-5.869,1.126.367.367,0,0,1-.108.024Z" fill="#1d1d1b"/>
    <path id="Path_495" data-name="Path 495" d="M168.575,105.816a16.25,16.25,0,0,0-2.75,3.981Z" fill="#ffcdb2"/>
    <path id="Path_496" data-name="Path 496" d="M165.821,110.2a.4.4,0,0,1-.35-.59,15.493,15.493,0,0,1,2.329-3.5c.152-.17.3-.328.459-.534a.4.4,0,0,1,.7.2.4.4,0,0,1-.07.291c-.179.23-.342.409-.5.58a14.26,14.26,0,0,0-2.218,3.346.4.4,0,0,1-.15.151.413.413,0,0,1-.206.053Z" fill="#1d1d1b"/>
    <path id="Path_497" data-name="Path 497" d="M158.986,113.856h-.059a.41.41,0,0,1-.336-.463c.416-2.607-3.3-5.212-3.335-5.24a.406.406,0,0,1-.1-.56.4.4,0,0,1,.113-.11.4.4,0,0,1,.146-.059.415.415,0,0,1,.157,0,.4.4,0,0,1,.143.063c.171.117,4.167,2.927,3.673,6.028a.4.4,0,0,1-.137.244A.4.4,0,0,1,158.986,113.856Z" fill="#1d1d1b"/>
    <path id="Path_498" data-name="Path 498" d="M163.073,105.441a6.965,6.965,0,0,0-1.124,2.411Z" fill="#ffcdb2"/>
    <path id="Path_499" data-name="Path 499" d="M161.946,108.246a.4.4,0,0,1-.077,0,.4.4,0,0,1-.314-.476,7.32,7.32,0,0,1,1.2-2.563.405.405,0,0,1,.265-.157.4.4,0,0,1,.455.342.4.4,0,0,1-.077.3,6.592,6.592,0,0,0-1.05,2.238.4.4,0,0,1-.143.228.408.408,0,0,1-.255.089Z" fill="#1d1d1b"/>
    <path id="Path_500" data-name="Path 500" d="M159.334,102.508a.67.67,0,0,1-.49-.162.677.677,0,0,1,.392-1.187l6.671-1.1a.675.675,0,0,1,.216,1.332l-6.673,1.1a.757.757,0,0,1-.116.018Z" fill="#fff"/>
    <path id="Path_501" data-name="Path 501" d="M50.3,142.412a.676.676,0,0,1-.477-1.141c15.263-15.849,37.307-22.536,37.528-22.59a.671.671,0,0,1,.852.449.673.673,0,0,1-.06.52.68.68,0,0,1-.175.2.672.672,0,0,1-.239.118c-.216.065-21.927,6.648-36.938,22.235a.669.669,0,0,1-.225.153.679.679,0,0,1-.267.053Z" fill="#fff"/>
    <path id="Path_502" data-name="Path 502" d="M189.788,151.448a.672.672,0,0,1-.662-.646c-.326-8.627-2.81-13.417-4.848-15.916a10.35,10.35,0,0,0-4.333-3.373.673.673,0,0,1,.39-1.288c.388.117,9.473,3.047,10.132,20.538a.674.674,0,0,1-.042.259.654.654,0,0,1-.137.224.675.675,0,0,1-.212.155.691.691,0,0,1-.256.061Z" fill="#fff"/>
    <path id="Path_503" data-name="Path 503" d="M47.639,175.61a.663.663,0,0,1-.417-.151.675.675,0,0,1,.138-1.133c.659-.313,16.258-7.533,27.724-1.192a.675.675,0,0,1-.653,1.181c-10.87-6.011-26.344,1.156-26.5,1.23A.652.652,0,0,1,47.639,175.61Z" fill="#fff"/>
    <path id="Path_504" data-name="Path 504" d="M29.8,208.658a.415.415,0,0,1-.206-.058c-7.607-4.675-9.776-12.194-10.257-17.672a34.2,34.2,0,0,1,.781-10.846.4.4,0,0,1,.064-.151.394.394,0,0,1,.118-.114.388.388,0,0,1,.154-.057.393.393,0,0,1,.164.008.422.422,0,0,1,.146.074.4.4,0,0,1,.1.126.4.4,0,0,1,.026.32,34.284,34.284,0,0,0-.755,10.591c.683,7.693,4.006,13.424,9.875,17.036a.391.391,0,0,1,.116.106.4.4,0,0,1,.066.142.4.4,0,0,1-.4.5Z" fill="#1d1d1b"/>
    <path id="Path_505" data-name="Path 505" d="M174.075,116.02a.392.392,0,0,1-.21-.064.4.4,0,0,1-.184-.379.413.413,0,0,1,.078-.205c4.792-6.365,4.116-11.729,4.109-11.783a.426.426,0,0,1,.009-.159.407.407,0,0,1,.188-.249.4.4,0,0,1,.15-.053.426.426,0,0,1,.159.009.4.4,0,0,1,.248.188.4.4,0,0,1,.052.15c.033.232.744,5.731-4.262,12.384a.4.4,0,0,1-.337.161Z" fill="#1d1d1b"/>
    <path id="Path_506" data-name="Path 506" d="M191.295,200.5a.4.4,0,0,1-.2-.058.412.412,0,0,1-.147-.152.406.406,0,0,1,.164-.537c6.548-3.559,9.631-10.254,9.158-19.9a50.375,50.375,0,0,0-2.72-13.564.408.408,0,0,1,.088-.454.4.4,0,0,1,.137-.087.384.384,0,0,1,.161-.026.4.4,0,0,1,.286.138.4.4,0,0,1,.079.142,51.036,51.036,0,0,1,2.771,13.81c.483,9.837-2.828,16.977-9.578,20.645a.4.4,0,0,1-.2.038Z" fill="#1d1d1b"/>
    <path id="Path_507" data-name="Path 507" d="M43.1,222.261a.4.4,0,0,1-.284-.124.424.424,0,0,1,.006-.587.4.4,0,0,1,.286-.119l143.087-.137a.394.394,0,0,1,.284.124.423.423,0,0,1-.006.586.4.4,0,0,1-.286.119Z" fill="#1d1d1b"/>
    <path id="Path_508" data-name="Path 508" d="M130.987,57.252a.4.4,0,0,1-.4-.407c.107-10.028-7.11-11.849-7.418-11.922a.4.4,0,0,1-.329-.327.408.408,0,0,1,.074-.312.413.413,0,0,1,.122-.109.4.4,0,0,1,.319-.036c.08.017,8.152,2.018,8.037,12.719a.4.4,0,0,1-.407.394Z" fill="#1d1d1b"/>
    <path id="Path_509" data-name="Path 509" d="M158.008,95.676a.654.654,0,0,1-.313-.081.672.672,0,0,1-.258-.912,20.248,20.248,0,0,0,2.628-8.408.68.68,0,0,1,.2-.471.668.668,0,0,1,1.136.486,21.267,21.267,0,0,1-2.781,9.033.672.672,0,0,1-.616.352Z" fill="#fff"/>
    <path id="Path_510" data-name="Path 510" d="M116.331,214.36a2.373,2.373,0,1,0-2.339-2.4A2.373,2.373,0,0,0,116.331,214.36Z" fill="#51cef4"/>
    <path id="Path_511" data-name="Path 511" d="M145.713,185.8a2.373,2.373,0,1,0-2.339-2.395A2.373,2.373,0,0,0,145.713,185.8Z" fill="#51cef4"/>
    <path id="Path_512" data-name="Path 512" d="M146.282,216.85l-59.788-.516a.066.066,0,0,1-.044-.018.068.068,0,0,1-.022-.042c-2.568-16.859-2.827-32.8.541-47.308a.072.072,0,0,1,.025-.038.067.067,0,0,1,.043-.015l59.8.516a.065.065,0,0,1,.04.014.067.067,0,0,1,.024.035q5.511,20.459-.541,47.319a.074.074,0,0,1-.027.04.069.069,0,0,1-.046.013Z" fill="#4bd657"/>
    <path id="Path_513" data-name="Path 513" d="M146.277,217.254l-59.788-.516a.469.469,0,0,1-.46-.4c-2.791-18.324-2.613-33.847.543-47.464a.481.481,0,0,1,.168-.264.472.472,0,0,1,.3-.1l59.8.516a.475.475,0,0,1,.45.346c3.671,13.638,3.491,29.625-.543,47.512a.485.485,0,0,1-.167.266A.478.478,0,0,1,146.277,217.254Zm-59.494-1.322,59.234.511c3.921-17.546,4.106-33.226.552-46.6L87.3,169.333c-3.059,13.367-3.228,28.621-.514,46.6Z" fill="#1d1e1b"/>
    <path id="Path_514" data-name="Path 514" d="M87.1,168.956l7.533-7.4a.078.078,0,0,1,.049-.018l44.726.39a.077.077,0,0,1,.048.02l7.365,7.533a.077.077,0,0,1,.018.036.079.079,0,0,1-.005.04.075.075,0,0,1-.025.031.071.071,0,0,1-.038.012l-59.624-.521a.065.065,0,0,1-.038-.013.068.068,0,0,1-.024-.031.072.072,0,0,1,0-.04.071.071,0,0,1,.019-.036Z" fill="#4bd657"/>
    <path id="Path_515" data-name="Path 515" d="M146.755,170l-59.623-.521a.467.467,0,0,1-.26-.083.475.475,0,0,1-.171-.215.481.481,0,0,1,.107-.518h0l7.533-7.4a.475.475,0,0,1,.154-.1.467.467,0,0,1,.181-.034l44.725.39a.466.466,0,0,1,.332.141l7.364,7.528a.474.474,0,0,1,.126.245.479.479,0,0,1-.206.487.469.469,0,0,1-.262.079Zm-58.8-1.327,58,.506-6.7-6.841L94.8,161.951Z" fill="#1d1e1b"/>
    <path id="Path_516" data-name="Path 516" d="M122.459,182.931a5.55,5.55,0,0,0-5.592,5.493c0,.06,0,.124,0,.186a5.52,5.52,0,0,0-5.466-5.484c-3.057-.028-5.813,2.441-5.594,5.493.407,5.636,7.222,10.761,9.873,12.553a1.756,1.756,0,0,0,2.042-.057c2.739-2.062,10.164-8.069,10.214-12.592a5.52,5.52,0,0,0-5.475-5.592Z" fill="#fff"/>
    <path id="Path_517" data-name="Path 517" d="M116.64,201.875a2.141,2.141,0,0,1-1.183-.368c-2.885-1.948-9.636-7.086-10.05-12.859a5.246,5.246,0,0,1,1.457-3.988,6.168,6.168,0,0,1,4.543-1.938,5.926,5.926,0,0,0,11.065-.2,5.933,5.933,0,0,1,5.867,6c-.051,4.638-7.27,10.574-10.372,12.91a2.165,2.165,0,0,1-1.327.438ZM111.4,183.521a5.418,5.418,0,0,0-3.946,1.683,4.447,4.447,0,0,0-1.241,3.375c.389,5.41,6.91,10.368,9.7,12.25a1.359,1.359,0,0,0,1.575-.045c2.346-1.766,10-7.874,10.052-12.272a5.128,5.128,0,1,0-10.256-.092c0,.051,0,.1,0,.156v.043l-.806-.007a5.145,5.145,0,0,0-5.072-5.083Z" fill="#1d1e1b"/>
    <path id="Path_518" data-name="Path 518" d="M128.161,166.505l-21.272-.2a.4.4,0,0,1-.284-.123.414.414,0,0,1,.006-.579.4.4,0,0,1,.287-.117l21.272.2a.4.4,0,0,1,.284.123.414.414,0,0,1-.006.579A.4.4,0,0,1,128.161,166.505Z" fill="#1d1e1b"/>
    <path id="Path_519" data-name="Path 519" d="M126.988,166.092c.035-.043.074-.086.106-.131a5.532,5.532,0,1,0-8.922-6.543l-.115.148a5.546,5.546,0,0,0-1.259-7.659c-2.462-1.8-6.137-1.4-7.732,1.213-2.189,3.591-1.336,9.022-.3,12.8Z" fill="#fff"/>
    <path id="Path_520" data-name="Path 520" d="M127.172,166.5l-18.711-.167-.08-.292c-1.085-3.951-1.908-9.441.344-13.123a5.218,5.218,0,0,1,3.5-2.392,6.13,6.13,0,0,1,4.824,1.069,3.509,3.509,0,1,0,4.682,5.227,5.943,5.943,0,0,1,5.691,9.384c-.024.035-.054.07-.082.1Zm-18.095-.97,17.711.159a5.127,5.127,0,0,0-8.3-6.022l-.1.123-.027.034-.645-.482a5.167,5.167,0,0,0-1.16-7.1,5.407,5.407,0,0,0-4.181-.929,4.434,4.434,0,0,0-2.978,2.025c-2.027,3.34-1.318,8.422-.317,12.193Z" fill="#1d1e1b"/>
    <path id="Path_521" data-name="Path 521" d="M143.724,212.977a.657.657,0,0,1-.534-.273.669.669,0,0,1-.1-.6c5.281-17.352,1.023-38.5.977-38.714a.681.681,0,0,1,.1-.507.667.667,0,0,1,1.213.231c.043.216,4.374,21.688-1.009,39.379a.677.677,0,0,1-.244.348A.661.661,0,0,1,143.724,212.977Z" fill="#fff"/>
    <path id="Path_522" data-name="Path 522" d="M85.354,177.328a9.56,9.56,0,0,0-10.409,6.335c-2.846,7.624-3.108,15.578,1.105,20.224s9.12,4.842,12.31,3.261,3.68-5.106.923-8.68c0,0,4.919-3.779-.3-9.777,0,0,5.132-8.454-3.707-8.181Z" fill="#ffcdb2"/>
    <path id="Path_523" data-name="Path 523" d="M72.866,195.392a29.693,29.693,0,0,1,2.073-11.729,9.558,9.558,0,0,1,10.409-6.335l-.094,3.182c3.9-.121,5.084,1.463,5.182,3.275a10.376,10.376,0,0,1-1.474,4.913,8.518,8.518,0,0,1,2.395,5.067,5.885,5.885,0,0,1-2.092,4.711,7.836,7.836,0,0,1,1.789,4.249,4.544,4.544,0,0,1-2.712,4.431c-3.177,1.586-8.068,1.395-12.311-3.261a13.471,13.471,0,0,1-3.178-8.5Zm-.642.045a13.966,13.966,0,0,0,3.343,8.879,12.819,12.819,0,0,0,6.876,4.165,9.646,9.646,0,0,0,6.163-.752,5.158,5.158,0,0,0,3.059-5.028,8.174,8.174,0,0,0-1.565-4.134,6.408,6.408,0,0,0,1.879-4.826,8.934,8.934,0,0,0-2.257-5.106,10.3,10.3,0,0,0,1.34-4.874c-.1-1.75-1.088-3.79-5.164-3.867l.076-2.529a.334.334,0,0,0,0-.053.624.624,0,0,0-.162-.386.617.617,0,0,0-.369-.2,10.988,10.988,0,0,0-4.411.321,9.85,9.85,0,0,0-6.693,6.414,30.3,30.3,0,0,0-2.113,11.984Z"/>
    <path id="Path_524" data-name="Path 524" d="M85.2,199.669a12,12,0,0,1-7.765-2.986.407.407,0,0,1,.006-.571.392.392,0,0,1,.131-.087.395.395,0,0,1,.309,0,.4.4,0,0,1,.13.089h0a11.03,11.03,0,0,0,11.866,1.811.4.4,0,0,1,.3.75,12.722,12.722,0,0,1-4.981.991Z" fill="#1d1d1b"/>
    <path id="Path_525" data-name="Path 525" d="M84.841,190.1a23.9,23.9,0,0,1-5.747-.817.427.427,0,0,1-.145-.07.407.407,0,0,1-.143-.435.4.4,0,0,1,.074-.142.386.386,0,0,1,.124-.1.4.4,0,0,1,.154-.046.41.41,0,0,1,.16.017c.062.017,6.262,1.757,10.058-.02a.405.405,0,0,1,.153-.037.392.392,0,0,1,.155.024.4.4,0,0,1,.134.082.408.408,0,0,1,.093.128.4.4,0,0,1,.037.153.408.408,0,0,1-.106.292.4.4,0,0,1-.127.093A11.413,11.413,0,0,1,84.841,190.1Z" fill="#1d1d1b"/>
    <path id="Path_526" data-name="Path 526" d="M79.919,181.085a.393.393,0,0,1-.24-.082.4.4,0,0,1-.144-.209.4.4,0,0,1,.168-.452c2.38-1.548,6.189-.52,6.361-.481a.4.4,0,0,1,.293.34.405.405,0,0,1-.083.3.4.4,0,0,1-.119.1.4.4,0,0,1-.306.038c-.035,0-3.632-.974-5.709.373A.383.383,0,0,1,79.919,181.085Z" fill="#1d1d1b"/>
    <path id="Path_527" data-name="Path 527" d="M88.938,183.58a.671.671,0,0,1-.268-.059,12,12,0,0,0-8.508-.364.674.674,0,0,1-.487-1.256,13.219,13.219,0,0,1,9.548.39.675.675,0,0,1-.283,1.29Z" fill="#fff"/>
    <path id="Path_528" data-name="Path 528" d="M84.41,192.288a13.347,13.347,0,0,1-5.46-1.3.664.664,0,0,1-.207-.163.676.676,0,0,1-.087-.747.675.675,0,0,1,.395-.335.665.665,0,0,1,.262-.029.678.678,0,0,1,.253.074c.059.03,4.953,2.473,8.968.108a.684.684,0,0,1,.248-.087.661.661,0,0,1,.262.016.671.671,0,0,1,.236.114.686.686,0,0,1,.174.2.677.677,0,0,1,.07.511.675.675,0,0,1-.311.412,9.179,9.179,0,0,1-4.8,1.228Z" fill="#fff"/>
    <path id="Path_529" data-name="Path 529" d="M162.537,84.289a5.538,5.538,0,0,0-10.309,4.048c.024.054.042.116.063.175a5.511,5.511,0,0,0-7.117-3.025c-2.846,1.119-4.487,4.437-3.145,7.184,1.555,3.188,5.387,5.238,8.793,6.491,1.537-1.785,3.345-1.739,4.254-.363a3.543,3.543,0,0,1,.448,1.734l.346.076a1.761,1.761,0,0,0,1.875-.817C159.521,96.842,164.175,88.5,162.537,84.289Z" fill="#fff"/>
    <path id="Path_530" data-name="Path 530" d="M156.217,101.039a2.22,2.22,0,0,1-.43-.047l-.348-.076a.4.4,0,0,1-.22-.133.411.411,0,0,1-.1-.239,3.2,3.2,0,0,0-.38-1.535,1.708,1.708,0,0,0-1.334-.82,2.93,2.93,0,0,0-2.276,1.226.4.4,0,0,1-.444.114c-4.65-1.705-7.684-3.956-9.019-6.692a5.222,5.222,0,0,1-.133-4.238,6.17,6.17,0,0,1,3.493-3.5,3.51,3.51,0,0,0,6.922-1.166,5.927,5.927,0,0,1,10.963.208h0c1.679,4.322-2.812,12.519-4.82,15.839a2.174,2.174,0,0,1-1.878,1.055Zm-.311-.848h.051a1.361,1.361,0,0,0,1.447-.63c1.519-2.517,6.351-11.042,4.758-15.134a5.133,5.133,0,0,0-9.556,3.753l.055.154v.035a.406.406,0,0,1-.237.512.4.4,0,0,1-.516-.223,5.136,5.136,0,0,0-6.6-2.818,5.442,5.442,0,0,0-3.037,3.036,4.442,4.442,0,0,0,.108,3.595c1.5,3.077,5.3,5.054,8.32,6.193a3.578,3.578,0,0,1,2.746-1.294,2.508,2.508,0,0,1,1.956,1.183,3.556,3.556,0,0,1,.5,1.639Z"/>
    <path id="Path_531" data-name="Path 531" d="M164.458,83.826a.4.4,0,0,1-.368-.251c-1.063-2.644-2.567-4.252-4.468-4.784-3.216-.9-6.586,1.593-6.621,1.619a.4.4,0,0,1-.626-.382.411.411,0,0,1,.143-.264c.15-.114,3.71-2.755,7.317-1.753,2.157.6,3.84,2.37,5,5.26a.407.407,0,0,1-.089.449.416.416,0,0,1-.135.088A.4.4,0,0,1,164.458,83.826Z" fill="#1d1d1b"/>
    <path id="Path_532" data-name="Path 532" d="M197.775,36.305a9.99,9.99,0,0,0-11.082.882,10.066,10.066,0,0,0-2.541,2.978c-.052.091-.112.19-.173.287a10.02,10.02,0,0,0-3.9-13.476c-4.8-2.7-11.321-1.175-13.62,3.86-4.247,9.31,2.1,23.389,4.743,28.542a3.166,3.166,0,0,0,3.283,1.69c6.125-.9,23.093-3.975,27.1-11.114a10.028,10.028,0,0,0-3.81-13.648Z" fill="#fff"/>
    <path id="Path_533" data-name="Path 533" d="M174,61.5a3.575,3.575,0,0,1-3.149-1.942c-2.853-5.561-9.033-19.509-4.75-28.894a9.153,9.153,0,0,1,5.571-4.89,10.766,10.766,0,0,1,8.613.847,10.38,10.38,0,0,0,17.69,9.327,10.439,10.439,0,0,1,3.962,14.2c-4.032,7.2-20.5,10.325-27.386,11.316A3.476,3.476,0,0,1,174,61.5Zm1.068-35.439a9.857,9.857,0,0,0-3.147.479A8.365,8.365,0,0,0,166.83,31c-4.132,9.063,1.933,22.733,4.736,28.189a2.771,2.771,0,0,0,2.867,1.476c5.285-.762,22.836-3.842,26.8-10.912A9.64,9.64,0,0,0,200.508,39a9.6,9.6,0,0,0-16,1.361c-.044.075-.09.155-.14.233l-.041.067-.7-.4a9.664,9.664,0,0,0-3.737-12.934,10.083,10.083,0,0,0-4.822-1.264Z" fill="#1d1e1b"/>
    <path id="Path_534" data-name="Path 534" d="M177.345,34.33a.4.4,0,0,1-.355-.219A48.845,48.845,0,0,0,149.051,9.864a.4.4,0,0,1-.141-.07.4.4,0,0,1-.154-.268.4.4,0,0,1,.2-.4.4.4,0,0,1,.306-.041,42.177,42.177,0,0,1,10.487,4.94,50.269,50.269,0,0,1,17.966,19.719.406.406,0,0,1-.178.537.386.386,0,0,1-.191.052Z"/>
    <path id="Path_535" data-name="Path 535" d="M171.872,35.063a.405.405,0,0,1-.337-.186c-7.551-11.839-16.971-11.6-17.068-11.6a.4.4,0,0,1-.29-.106.4.4,0,0,1-.093-.127.406.406,0,0,1-.037-.153.4.4,0,0,1,.024-.156.4.4,0,0,1,.082-.135.407.407,0,0,1,.127-.093.4.4,0,0,1,.153-.038c.4-.015,9.963-.285,17.778,11.97a.4.4,0,0,1-.342.622Z"/>
    <path id="Path_536" data-name="Path 536" d="M195.375,52.783a.674.674,0,0,1-.327-.09.682.682,0,0,1-.243-.238.678.678,0,0,1-.074-.508.69.69,0,0,1,.112-.237.673.673,0,0,1,.195-.175c2.794-1.686,4.312-3.633,4.515-5.792.344-3.645-3.166-6.815-3.2-6.848a.677.677,0,0,1-.189-.723.671.671,0,0,1,1.08-.286c.165.147,4.047,3.646,3.645,7.971-.241,2.613-1.977,4.908-5.171,6.83A.666.666,0,0,1,195.375,52.783Z" fill="#fff"/>
    <path id="Path_537" data-name="Path 537" d="M48.985,27.789a4.861,4.861,0,0,0-2.067,6.55c.024.046.047.1.071.149a4.817,4.817,0,0,0-6.481-1.976,4.738,4.738,0,0,0-2.067,6.552c2.637,4.18,10.006,5.318,12.792,5.606a1.548,1.548,0,0,0,1.557-.889c1.269-2.725,4.542-10.43,2.724-13.938a4.819,4.819,0,0,0-6.528-2.054Z" fill="#fff"/>
    <path id="Path_538" data-name="Path 538" d="M51.359,45.081h-.18c-3.036-.312-10.39-1.5-13.091-5.792a4.636,4.636,0,0,1-.516-3.718A5.471,5.471,0,0,1,40.3,32.163a5.223,5.223,0,0,0,5.808.479,5.273,5.273,0,0,0,2.669-5.2,5.234,5.234,0,0,1,7.071,2.215c1.876,3.619-1.274,11.2-2.717,14.3a1.95,1.95,0,0,1-1.769,1.132Zm-8.6-12.711a4.353,4.353,0,0,0-2.073.5,4.711,4.711,0,0,0-2.334,2.9,3.838,3.838,0,0,0,.421,3.079c2.511,3.993,9.573,5.118,12.494,5.418a1.139,1.139,0,0,0,1.149-.655c1.084-2.331,4.491-10.194,2.73-13.583a4.426,4.426,0,0,0-5.982-1.883,4.471,4.471,0,0,0-1.9,6.007c.021.038.039.078.06.122l.019.035-.719.371a4.443,4.443,0,0,0-3.867-2.311Z" fill="#1d1e1b"/>
    <path id="Path_539" data-name="Path 539" d="M51.411,30.832a.406.406,0,0,1-.367-.563,31.243,31.243,0,0,1,6.185-8.716A32.465,32.465,0,0,1,78.672,11.88a.4.4,0,0,1,.05.808,31.659,31.659,0,0,0-20.9,9.406,31.06,31.06,0,0,0-6.043,8.491.4.4,0,0,1-.374.247Z"/>
    <path id="Path_540" data-name="Path 540" d="M49.477,20.03a.412.412,0,0,1-.212-.064.4.4,0,0,1-.114-.108.4.4,0,0,1-.009-.448c.063-.1,6.416-10.025,16.657-13.732a.4.4,0,0,1,.26.761c-9.98,3.61-16.191,13.316-16.251,13.4a.408.408,0,0,1-.332.188Z"/>
    <path id="Path_541" data-name="Path 541" d="M51.874,42.455a.667.667,0,0,1-.566-.323.672.672,0,0,1-.021-.653c2.824-5.519,2.369-9.458,2.364-9.5a.674.674,0,0,1,.579-.743.669.669,0,0,1,.749.567c.025.175.528,4.362-2.5,10.285a.669.669,0,0,1-.6.366Z" fill="#fff"/>
  </g>
</svg>
