<svg id="Page-1" xmlns="http://www.w3.org/2000/svg" width="19.733" height="19.733" viewBox="0 0 19.733 19.733">
  <g id="Icon-Set">
    <path id="duplicate" d="M222.5,943.333a1.234,1.234,0,0,1-1.233,1.233H211.4a1.234,1.234,0,0,1-1.233-1.233v-9.867a1.234,1.234,0,0,1,1.233-1.233h9.867a1.234,1.234,0,0,1,1.233,1.233v9.867ZM221.267,931H211.4a2.467,2.467,0,0,0-2.467,2.467v9.867A2.467,2.467,0,0,0,211.4,945.8h9.867a2.467,2.467,0,0,0,2.467-2.467v-9.867A2.467,2.467,0,0,0,221.267,931Zm-3.7,17.267a1.234,1.234,0,0,1-1.233,1.233h-9.867a1.234,1.234,0,0,1-1.233-1.233V938.4a1.234,1.234,0,0,1,1.233-1.233H207.7v-1.233h-1.233A2.467,2.467,0,0,0,204,938.4v9.867a2.467,2.467,0,0,0,2.467,2.467h9.867a2.467,2.467,0,0,0,2.467-2.467v-1.233h-1.233v1.233Z" transform="translate(-204 -931)" fill="#99a1b7" fill-rule="evenodd"/>
  </g>
</svg>
