<svg xmlns="http://www.w3.org/2000/svg" width="20.967" height="20.854" viewBox="0 0 20.967 20.854">
  <g id="edit" transform="translate(0 -0.269)">
    <path id="Path_543" data-name="Path 543" d="M20.365,30.807a.549.549,0,0,0-.55.55v4.879a1.651,1.651,0,0,1-1.649,1.649H2.748A1.651,1.651,0,0,1,1.1,36.236V21.916a1.65,1.65,0,0,1,1.649-1.649H7.627a.55.55,0,1,0,0-1.1H2.748A2.751,2.751,0,0,0,0,21.916v14.32a2.751,2.751,0,0,0,2.748,2.748H18.167a2.751,2.751,0,0,0,2.748-2.748V31.357A.55.55,0,0,0,20.365,30.807Zm0,0" transform="translate(0 -17.861)" fill="#99a1b7"/>
    <path id="Path_544" data-name="Path 544" d="M156.367,40.352l8.024-8.024,2.588,2.588-8.024,8.024Zm0,0" transform="translate(-147.774 -30.298)" fill="#99a1b7"/>
    <path id="Path_545" data-name="Path 545" d="M132.543,200.079l2.86-.792-2.068-2.068Zm0,0" transform="translate(-125.259 -186.127)" fill="#99a1b7"/>
    <path id="Path_546" data-name="Path 546" d="M319.053.67a1.376,1.376,0,0,0-1.943,0l-.583.583,2.588,2.588.583-.583a1.375,1.375,0,0,0,0-1.943Zm0,0" transform="translate(-299.133)" fill="#99a1b7"/>
  </g>
</svg>
