<svg xmlns="http://www.w3.org/2000/svg" width="18.076" height="18.076" viewBox="0 0 18.076 18.076">
  <g id="event-calender-date-note-svgrepo-com" transform="translate(-2 -2)">
    <path id="Path_597" data-name="Path 597" d="M7.9,12a.9.9,0,0,0,0,1.808h7.23a.9.9,0,0,0,0-1.808Z" transform="translate(-0.481 -0.962)" fill="#5182cf"/>
    <path id="Path_598" data-name="Path 598" d="M7,16.9a.9.9,0,0,1,.9-.9h3.615a.9.9,0,0,1,0,1.808H7.9A.9.9,0,0,1,7,16.9Z" transform="translate(-0.481 -1.347)" fill="#5182cf"/>
    <path id="Path_599" data-name="Path 599" d="M7.423,2.9a.9.9,0,0,0-1.808,0V3.9A4.521,4.521,0,0,0,2,8.327v7.23a4.519,4.519,0,0,0,4.519,4.519h9.038a4.519,4.519,0,0,0,4.519-4.519V8.327A4.521,4.521,0,0,0,16.461,3.9V2.9a.9.9,0,0,0-1.808,0v.9H7.423ZM18.269,9.23H3.808v6.327a2.711,2.711,0,0,0,2.711,2.711h9.038a2.711,2.711,0,0,0,2.711-2.711ZM3.962,7.423A2.713,2.713,0,0,1,6.519,5.615h9.038a2.713,2.713,0,0,1,2.557,1.808Z" fill="#5182cf" fill-rule="evenodd"/>
  </g>
</svg>
