<svg xmlns="http://www.w3.org/2000/svg" width="16.665" height="16.665" viewBox="0 0 16.665 16.665">
  <path id="send-svgrepo-com" d="M9.62,12.675l8.808-8.8m-8.558,9.2,2,3.995c.483.965.724,1.448,1.028,1.577a.9.9,0,0,0,.812-.055c.284-.169.458-.68.807-1.7L18.288,5.835c.3-.89.456-1.335.352-1.629a.9.9,0,0,0-.548-.548c-.294-.1-.739.048-1.629.352L5.412,7.783c-1.021.349-1.532.523-1.7.807a.9.9,0,0,0-.055.812c.129.3.612.545,1.577,1.028l3.994,2a1.894,1.894,0,0,1,.307.172.9.9,0,0,1,.163.163A1.892,1.892,0,0,1,9.871,13.071Z" transform="translate(-2.824 -2.809)" fill="none" stroke="#99a1b7" stroke-linecap="round" stroke-linejoin="round" stroke-width="1.5"/>
</svg>
