<svg xmlns="http://www.w3.org/2000/svg" width="20" height="20" viewBox="0 0 20 20">
  <path id="calendar-plus-svgrepo-com" d="M12,17V9m4,4H8M7,3V5M17,3V5M6.2,21H17.8a4.968,4.968,0,0,0,2.108-.218,2,2,0,0,0,.874-.874A4.968,4.968,0,0,0,21,17.8V8.2a4.968,4.968,0,0,0-.218-2.108,2,2,0,0,0-.874-.874A4.969,4.969,0,0,0,17.8,5H6.2a4.969,4.969,0,0,0-2.108.218,2,2,0,0,0-.874.874A4.969,4.969,0,0,0,3,8.2v9.6a4.969,4.969,0,0,0,.218,2.108,2,2,0,0,0,.874.874A4.968,4.968,0,0,0,6.2,21Z" transform="translate(-2 -2)" fill="none" stroke="#99a1b7" stroke-linecap="round" stroke-linejoin="round" stroke-width="2"/>
</svg>
